<svg xmlns="http://www.w3.org/2000/svg" xmlns:xlink="http://www.w3.org/1999/xlink" width="1000" height="1000" viewBox="0 0 1000 1000">
  <defs>
    <clipPath id="clip-Web_1920_26">
      <rect width="1000" height="1000"/>
    </clipPath>
  </defs>
  <g id="Web_1920_26" data-name="Web 1920 – 26" clip-path="url(#clip-Web_1920_26)">
    <rect width="1000" height="1000" fill="rgba(255,255,255,0)"/>
    <g id="ui-profile-icon-vector" transform="translate(-21.961 920.814)">
      <path id="Path_12" data-name="Path 12" d="M503.885-919.245c-87.09,10.429-162.309,57.357-211.124,132.022-36.5,55.693-52.476,127.584-43.379,195.148,7.766,57.579,32.284,110.5,72.113,155.431l6.989,7.766-6.324,3.106c-43.711,21.3-89.975,55.471-128.028,94.412C115.585-250.815,68.767-146.972,60.114-33.589c-1.886,24.962-1.442,40.05,1.22,47.262,3.106,8.21,11.094,16.2,19.3,19.3l6.213,2.33H987.485l6.1-2.33c7.544-2.774,15.421-10.207,18.749-17.418,7.655-17.085-.111-93.3-14.755-144.115C960.748-255.807,875.765-360.426,759.164-422.111l-12.98-6.878,10.983-12.758c11.205-13.091,27.958-37.277,36.056-52.143,15.2-28.069,26.294-61.906,31.4-95.522,2.885-19.193,3.439-54.584,1.22-73.666C809.643-800.315,701.474-906.6,564.349-919.911,548.928-921.353,519.084-921.02,503.885-919.245ZM569.9-850.461c82.431,12.426,152.1,71.114,178.063,149.884,14.977,45.93,14.977,93.747-.111,140.121-7.211,22.078-23.076,50.923-37.831,69.117-76.551,93.858-213.343,109.944-308.2,36.389-75-58.134-104.952-155.542-75.33-245.627,15.088-46.041,46.152-86.868,86.979-114.382,33.061-22.3,68.119-34.17,111.5-37.721C533.618-853.345,558.358-852.125,569.9-850.461ZM407.7-371.41c23.076,11.316,35.835,16.087,57.8,21.745,27.625,7.1,38.275,8.321,71.114,8.321,18.306,0,32.284-.555,38.275-1.442,36.944-5.769,64.236-14.423,95.522-30.4L685.5-380.84l9.874,4.1c73.111,30.176,138.346,84.206,182.834,151.326,18.305,27.514,28.845,47.705,40.605,76.994,13.091,32.95,23.631,76,26.182,107.06l.777,8.986h-817.2l.777-9.1c.444-5.1,2-16.42,3.55-25.295C154.3-194.012,236.069-305.4,351.228-363.755c13.424-6.768,35.28-16.752,37.055-16.974C388.5-380.729,397.269-376.513,407.7-371.41Z" transform="translate(-37 0)" fill="#b0e0b0"/>
      <path id="Path_16" data-name="Path 16" d="M503.885-919.245c-87.09,10.429-162.309,57.357-211.124,132.022-36.5,55.693-52.476,127.584-43.379,195.148,7.766,57.579,32.284,110.5,72.113,155.431l6.989,7.766-6.324,3.106c-43.711,21.3-89.975,55.471-128.028,94.412C115.585-250.815,68.767-146.972,60.114-33.589c-1.886,24.962-1.442,40.05,1.22,47.262,3.106,8.21,11.094,16.2,19.3,19.3l6.213,2.33H987.485l6.1-2.33c7.544-2.774,15.421-10.207,18.749-17.418,7.655-17.085-.111-93.3-14.755-144.115C960.748-255.807,875.765-360.426,759.164-422.111l-12.98-6.878,10.983-12.758c11.205-13.091,27.958-37.277,36.056-52.143,15.2-28.069,26.294-61.906,31.4-95.522,2.885-19.193,3.439-54.584,1.22-73.666C809.643-800.315,701.474-906.6,564.349-919.911,548.928-921.353,519.084-921.02,503.885-919.245ZM569.9-850.461c82.431,12.426,152.1,71.114,178.063,149.884,14.977,45.93,14.977,93.747-.111,140.121-7.211,22.078-23.076,50.923-37.831,69.117-76.551,93.858-213.343,109.944-308.2,36.389-75-58.134-104.952-155.542-75.33-245.627,15.088-46.041,46.152-86.868,86.979-114.382,33.061-22.3,68.119-34.17,111.5-37.721C533.618-853.345,558.358-852.125,569.9-850.461ZM407.7-371.41c23.076,11.316,35.835,16.087,57.8,21.745,27.625,7.1,38.275,8.321,71.114,8.321,18.306,0,32.284-.555,38.275-1.442,36.944-5.769,64.236-14.423,95.522-30.4L685.5-380.84l9.874,4.1c73.111,30.176,138.346,84.206,182.834,151.326,18.305,27.514,28.845,47.705,40.605,76.994,13.091,32.95,23.631,76,26.182,107.06l.777,8.986h-817.2l.777-9.1c.444-5.1,2-16.42,3.55-25.295C154.3-194.012,236.069-305.4,351.228-363.755c13.424-6.768,35.28-16.752,37.055-16.974C388.5-380.729,397.269-376.513,407.7-371.41Z" transform="translate(6.629 0)" fill="#b0e0b0"/>
    </g>
  </g>
</svg>
