<svg xmlns="http://www.w3.org/2000/svg" xmlns:xlink="http://www.w3.org/1999/xlink" width="1000" height="1000" viewBox="0 0 1000 1000">
  <defs>
    <clipPath id="clip-Web_1920_17">
      <rect width="1000" height="1000"/>
    </clipPath>
  </defs>
  <g id="Web_1920_17" data-name="Web 1920 – 17" clip-path="url(#clip-Web_1920_17)">
    <rect width="1000" height="1000" fill="rgba(255,255,255,0)"/>
    <path id="link-2" d="M937.154,467.95,749.433,655.607c-103.613,103.678-271.7,103.678-375.313,0-16.329-16.265-29.094-34.6-40.306-53.525l87.22-87.22c4.147-4.18,9.267-6.577,14.158-9.4,6.026,20.607,16.555,40.111,32.756,56.309,51.741,51.775,135.948,51.71,187.657,0L843.261,374.12c51.775-51.775,51.775-135.948,0-187.69-51.71-51.741-135.882-51.741-187.657,0l-66.744,66.808c-54.138-21.092-112.49-26.761-169.287-18.436l142.2-142.2c103.678-103.645,271.7-103.645,375.378,0C1040.767,196.25,1040.767,364.305,937.154,467.95ZM440.894,776.522,374.12,843.33c-51.741,51.71-135.948,51.71-187.69,0a132.914,132.914,0,0,1,0-187.721L374.12,467.952a132.776,132.776,0,0,1,187.657,0c16.167,16.168,26.7,35.671,32.789,56.245,4.925-2.851,9.98-5.184,14.127-9.331l87.22-87.187c-11.145-18.985-23.976-37.26-40.306-53.556-103.613-103.645-271.7-103.645-375.346,0L92.6,561.78c-103.645,103.678-103.645,271.7,0,375.378,103.645,103.613,271.7,103.613,375.347,0L610.183,794.925C553.353,803.283,495,797.581,440.894,776.522Z" transform="translate(-14.871 -14.868)" fill="#b0e0b0"/>
  </g>
</svg>
