<svg xmlns="http://www.w3.org/2000/svg" xmlns:xlink="http://www.w3.org/1999/xlink" width="1000" height="1000" viewBox="0 0 1000 1000">
  <defs>
    <clipPath id="clip-Web_1920_16">
      <rect width="1000" height="1000"/>
    </clipPath>
  </defs>
  <g id="Web_1920_16" data-name="Web 1920 – 16" clip-path="url(#clip-Web_1920_16)">
    <rect width="1000" height="1000" fill="rgba(255,255,255,0)"/>
    <g id="Path_4" data-name="Path 4" transform="translate(0 21.248)" fill="rgba(255,255,255,0)">
      <path d="M 725 869.6030883789062 C 655.646728515625 814.4401245117188 528.043701171875 704.0690307617188 526.6358032226562 702.8504638671875 L 508.32080078125 687.0000610351562 L 484.099609375 687.0000610351562 L 210 687.0000610351562 C 130.0467987060547 687.0000610351562 65 621.9532470703125 65 542.0000610351562 L 65 210.0000457763672 C 65 130.0468444824219 130.0467987060547 65.00004577636719 210 65.00004577636719 L 790 65.00004577636719 C 869.9531860351562 65.00004577636719 935 130.0468444824219 935 210.0000457763672 L 935 542.0000610351562 C 935 621.9532470703125 869.9531860351562 687.0000610351562 790 687.0000610351562 L 725 687.0000610351562 L 725 752.0000610351562 L 725 869.6030883789062 Z" stroke="none"/>
      <path d="M 210 130.0000610351562 C 165.8877563476562 130.0000610351562 130 165.8878173828125 130 210.0000610351562 L 130 542 C 130 586.1123046875 165.8877563476562 622 210 622 L 532.541748046875 622.0007934570312 L 569.1710205078125 653.7003173828125 C 569.9691162109375 654.39111328125 611.7142944335938 690.4983520507812 660 731.3818359375 L 660 622 L 790 622 C 834.1122436523438 622 870 586.1123046875 870 542 L 870 210.0000610351562 C 870 165.8878173828125 834.1122436523438 130.0000610351562 790 130.0000610351562 L 210 130.0000610351562 M 210 6.103515625e-05 L 790 6.103515625e-05 C 905.979736328125 6.103515625e-05 1000 94.020263671875 1000 210.0000610351562 L 1000 542 C 1000 657.9797973632812 905.979736328125 752.0000610351562 790 752.0000610351562 L 790 935.8760375976562 C 790 935.8760375976562 768.2109985351562 984.5380859375 704.2734985351562 935.8760375976562 C 640.3359985351562 887.2138061523438 484.0994873046875 752.0000610351562 484.0994873046875 752.0000610351562 L 210 752.0000610351562 C 94.020263671875 752.0000610351562 0 657.9797973632812 0 542 L 0 210.0000610351562 C 0 94.020263671875 94.020263671875 6.103515625e-05 210 6.103515625e-05 Z" stroke="none" fill="#b0e0b0"/>
    </g>
  </g>
</svg>
